<svg width="120" height="31" viewBox="0 0 120 31" fill="none" xmlns="http://www.w3.org/2000/svg">
<g clip-path="url(#clip0_214_194243)">
<path d="M20.2703 9.8935L19.1478 8.13164L31.7646 0L18.7898 24.9242L13.5195 16.5829L15.5294 15.3453L18.6798 20.3598L25.8346 6.53088L20.2703 9.8935Z" fill="#2189FF"/>
<path d="M11.4968 17.8717L12.6194 19.6336L0 27.7652L12.9774 2.84351L18.2476 11.1848L16.2352 12.4199L13.0873 7.40541L5.92996 21.2343L11.4968 17.8717Z" fill="#2189FF"/>
</g>
<path d="M39.5975 17.1838V6.86746H36.8748V4.90101H39.658V0H41.8363V4.90101H46.5558V6.86746H41.8363V16.488L43.3489 18.0006H46.5558V19.9671H42.3808L39.5975 17.1838Z" fill="#2189FF"/>
<path d="M49.2785 17.1838V7.6843L52.0618 4.90101H59.6554L62.4689 7.6843V13.0996H51.5173V16.488L53.0299 17.9704H58.6873L60.1999 16.488V15.3383H62.4387V17.1838L59.6554 19.9671H52.0618L49.2785 17.1838ZM60.2302 11.1634V8.38012L58.7175 6.89772H53.0299L51.5173 8.38012V11.1634H60.2302Z" fill="#2189FF"/>
<path d="M65.3328 17.8796L74.681 6.83721V6.77671H65.6353V4.90101H77.2525V6.98848L67.9043 18.0309V18.0914H77.2525V19.9671H65.3328V17.8796Z" fill="#2189FF"/>
<path d="M80.7206 4.90101H82.8988V7.59354L85.5913 4.90101H89.494V6.89772H86.1661L82.9593 10.1046V19.9671H80.7206V4.90101Z" fill="#2189FF"/>
<path d="M91.139 17.4863V13.6442L93.6197 11.1937H101.667V8.31962L100.154 6.83721H95.0114L93.4987 8.31962V9.55999H91.26V7.6843L94.0433 4.90101H101.092L103.876 7.6843V19.9671H101.728V17.3048L98.9443 19.9671H93.6197L91.139 17.4863ZM98.4905 18.0309L101.667 14.9753V13.1299H94.5878L93.3777 14.3097V16.851L94.5878 18.0309H98.4905Z" fill="#2189FF"/>
<path d="M107.499 17.4863V15.6106H109.738V16.851L110.948 18.0309H116.515L117.725 16.851V14.5215L116.515 13.3114H110.01L107.62 10.9214V7.38177L110.101 4.90101H117.18L119.661 7.38177V9.25746H117.422V8.01708L116.212 6.83721H111.069L109.859 8.01708V10.2256L111.069 11.4357H117.483L119.964 13.9164V17.4863L117.483 19.9671H109.98L107.499 17.4863Z" fill="#2189FF"/>
<path d="M97.6331 27.492V24.6421L98.468 23.8071H100.646L101.481 24.6421V25.1957H100.81V24.8509L100.356 24.4061H98.7585L98.3047 24.8509V27.2832L98.7585 27.7279H100.356L100.81 27.2832V26.9383H101.481V27.492L100.646 28.3269H98.468L97.6331 27.492Z" fill="#2189FF"/>
<path d="M102.436 27.5827V26.4301L103.18 25.6949H105.594V24.8327L105.14 24.388H103.598L103.144 24.8327V25.2048H102.472V24.6421L103.307 23.8071H105.422L106.257 24.6421V28.3269H105.612V27.5283L104.777 28.3269H103.18L102.436 27.5827ZM104.641 27.7461L105.594 26.8294V26.2758H103.471L103.107 26.6297V27.3921L103.471 27.7461H104.641Z" fill="#2189FF"/>
<path d="M107.571 23.8071H108.224V24.6149L109.032 23.8071H110.203V24.4061H109.205L108.242 25.3682V28.3269H107.571V23.8071Z" fill="#2189FF"/>
<path d="M114.735 23.8071V29.4796L113.909 30.3055H111.668L110.969 29.6067V29.053H111.64V29.3888L111.958 29.7065H113.61L114.064 29.2618V27.5736L113.229 28.3269H111.577L110.742 27.492V24.6421L111.577 23.8071H113.292L114.082 24.5967V23.8071H114.735ZM114.064 25.3591L113.111 24.4061H111.867L111.413 24.8509V27.2832L111.867 27.7279H113.12L114.064 26.8476V25.3591Z" fill="#2189FF"/>
<path d="M116.007 27.492V24.6421L116.842 23.8071H119.165L120 24.6421V27.492L119.165 28.3269H116.842L116.007 27.492ZM118.875 27.7279L119.328 27.2832V24.8509L118.875 24.4061H117.132L116.678 24.8509V27.2832L117.132 27.7279H118.875Z" fill="#2189FF"/>
<defs>
<clipPath id="clip0_214_194243">
<rect width="31.7645" height="27.7652" fill="white"/>
</clipPath>
</defs>
</svg>
